<svg xmlns="http://www.w3.org/2000/svg" viewBox="0 0 500 500"><g id="freepik--background-complete--inject-31"><g><g><g><path d="M443.92,330.198h-180.746c-3.232,0-5.862-2.63-5.862-5.862V61.062c0-3.232,2.63-5.862,5.862-5.862h180.746c3.232,0,5.862,2.629,5.862,5.862V324.335c0,3.233-2.63,5.862-5.862,5.862ZM263.174,55.45c-3.095,0-5.612,2.518-5.612,5.612V324.335c0,3.095,2.518,5.612,5.612,5.612h180.746c3.095,0,5.612-2.517,5.612-5.612V61.062c0-3.094-2.518-5.612-5.612-5.612h-180.746Z" style="fill:#e0e0e0;"></path><path d="M235.493,330.198H54.746c-3.232,0-5.862-2.63-5.862-5.862V61.062c0-3.232,2.629-5.862,5.862-5.862H235.493c3.232,0,5.862,2.629,5.862,5.862V324.335c0,3.233-2.63,5.862-5.862,5.862ZM54.746,55.45c-3.094,0-5.612,2.518-5.612,5.612V324.335c0,3.095,2.518,5.612,5.612,5.612H235.493c3.095,0,5.612-2.517,5.612-5.612V61.062c0-3.094-2.518-5.612-5.612-5.612H54.746Z" style="fill:#e0e0e0;"></path></g><rect x="0" y="391.267" width="500" height=".25" style="fill:#e0e0e0;"></rect></g><rect x="51.672" y="405.531" width="16.06" height=".25" style="fill:#e0e0e0;"></rect><rect x="170.352" y="402.821" width="53.53" height=".25" style="fill:#e0e0e0;"></rect><rect x="68.732" y="414.821" width="36.25" height=".25" style="fill:#e0e0e0;"></rect><rect x="378.352" y="402.691" width="43.19" height=".25" style="fill:#e0e0e0;"></rect><rect x="430.452" y="402.691" width="6.33" height=".25" style="fill:#e0e0e0;"></rect><rect x="316.212" y="408.921" width="53.89" height=".25" style="fill:#e0e0e0;"></rect></g><path d="M333.926,232.123s26.414,9.19,15.823,21.237-30.151,20.771-18.211,28.562c11.94,7.792,118.683,3.492,118.683,3.492l-13.601-53.291h-102.694Z" style="fill:#f0f0f0;"></path><path d="M452.536,336.437c-13.601-17.513-228.491-22.556-241.115-34.798-12.624-12.242,32.715-43.251,32.488-56.913-.227-13.662-201.86-8.772-201.86-8.772v78.942c2.594,14.436,14.103,26.566,27.497,33.023,14.674,7.074,31.359,8.521,47.633,9.271,16.273,.75,32.831,.959,48.365,5.865,15.19,4.798,25.834,13.413,31.573,28.211l275.942,.25c-.317-1.726-6.922-37.567-20.523-55.08Z" style="fill:#f0f0f0;"></path><g><rect x="183.421" y="93.684" width="132.918" height="129.475" style="fill:#e0e0e0;"></rect><rect x="190.908" y="174.403" width="119.409" height="46.305" style="fill:#fff; opacity:.3;"></rect><rect x="192.056" y="174.403" width="117.475" height="2.675" style="fill:#fff;"></rect><g><rect x="323.022" y="107.898" width="135.705" height="128.056" transform="translate(781.749 343.852) rotate(180)" style="fill:#e6e6e6;"></rect><polygon points="324.988 107.898 461.405 107.898 454.791 95.96 324.988 95.96 324.988 107.898" style="fill:#e0e0e0;"></polygon><rect x="324.988" y="186.054" width="133.74" height="1.588" rx=".756" ry=".756" transform="translate(783.715 373.696) rotate(180)" style="fill:#fff;"></rect><g><g><rect x="429.144" y="119.76" width="10.663" height="21.497" transform="translate(868.952 261.017) rotate(180)" style="fill:#f5f5f5;"></rect><path d="M429.144,123.294l10.663,8.972s0,5.374,0,5.33-10.663-8.395-10.663-8.35,0-5.952,0-5.952Z" style="fill:#fff; opacity:.2;"></path></g><g><rect x="407.763" y="119.76" width="10.663" height="21.497" transform="translate(826.188 261.017) rotate(180)" style="fill:#f5f5f5;"></rect><path d="M407.763,123.294l10.663,8.972s0,5.374,0,5.33-10.663-8.395-10.663-8.35,0-5.952,0-5.952Z" style="fill:#fff; opacity:.2;"></path></g><g><rect x="386.381" y="119.76" width="10.663" height="21.497" transform="translate(783.424 261.017) rotate(180)" style="fill:#f5f5f5;"></rect><path d="M386.381,123.294l10.663,8.972s0,5.374,0,5.33-10.663-8.395-10.663-8.35,0-5.952,0-5.952Z" style="fill:#fff; opacity:.2;"></path></g><g><rect x="364.999" y="119.76" width="10.663" height="21.497" transform="translate(740.66 261.017) rotate(180)" style="fill:#f5f5f5;"></rect><path d="M364.999,123.294l10.663,8.972s0,5.374,0,5.33-10.663-8.395-10.663-8.35,0-5.952,0-5.952Z" style="fill:#fff; opacity:.2;"></path></g><rect x="427.291" y="141.217" width="13.756" height="1.577" transform="translate(868.338 284.011) rotate(180)" style="fill:#fff;"></rect><rect x="406.09" y="141.217" width="13.756" height="1.577" transform="translate(825.937 284.011) rotate(180)" style="fill:#fff;"></rect><rect x="384.89" y="141.217" width="13.756" height="1.577" transform="translate(783.536 284.011) rotate(180)" style="fill:#fff;"></rect><rect x="363.689" y="141.217" width="13.756" height="1.577" transform="translate(741.134 284.011) rotate(180)" style="fill:#fff;"></rect><g><rect x="343.978" y="119.76" width="10.663" height="21.497" transform="translate(698.619 261.017) rotate(180)" style="fill:#f5f5f5;"></rect><path d="M343.978,123.294l10.663,8.972s0,5.374,0,5.33-10.663-8.395-10.663-8.35,0-5.952,0-5.952Z" style="fill:#fff; opacity:.2;"></path></g><rect x="342.668" y="141.217" width="13.756" height="1.577" transform="translate(699.092 284.011) rotate(180)" style="fill:#fff;"></rect></g><g><g><rect x="429.144" y="155.1" width="10.663" height="21.497" transform="translate(868.952 331.696) rotate(180)" style="fill:#f5f5f5;"></rect><path d="M429.144,158.634l10.663,8.972s0,5.374,0,5.33-10.663-8.395-10.663-8.35,0-5.952,0-5.952Z" style="fill:#fff; opacity:.2;"></path></g><g><rect x="407.763" y="155.1" width="10.663" height="21.497" transform="translate(826.188 331.696) rotate(180)" style="fill:#f5f5f5;"></rect><path d="M407.763,158.634l10.663,8.972s0,5.374,0,5.33-10.663-8.395-10.663-8.35,0-5.952,0-5.952Z" style="fill:#fff; opacity:.2;"></path></g><g><rect x="386.381" y="155.1" width="10.663" height="21.497" transform="translate(783.424 331.696) rotate(180)" style="fill:#f5f5f5;"></rect><path d="M386.381,158.634l10.663,8.972s0,5.374,0,5.33-10.663-8.395-10.663-8.35,0-5.952,0-5.952Z" style="fill:#fff; opacity:.2;"></path></g><g><rect x="364.999" y="155.1" width="10.663" height="21.497" transform="translate(740.66 331.696) rotate(180)" style="fill:#f5f5f5;"></rect><path d="M364.999,158.634l10.663,8.972s0,5.374,0,5.33-10.663-8.395-10.663-8.35,0-5.952,0-5.952Z" style="fill:#fff; opacity:.2;"></path></g><rect x="427.291" y="176.556" width="13.756" height="1.577" transform="translate(868.338 354.69) rotate(180)" style="fill:#fff;"></rect><rect x="406.09" y="176.556" width="13.756" height="1.577" transform="translate(825.937 354.69) rotate(180)" style="fill:#fff;"></rect><rect x="384.89" y="176.556" width="13.756" height="1.577" transform="translate(783.536 354.69) rotate(180)" style="fill:#fff;"></rect><rect x="363.689" y="176.556" width="13.756" height="1.577" transform="translate(741.134 354.69) rotate(180)" style="fill:#fff;"></rect><g><rect x="343.978" y="155.1" width="10.663" height="21.497" transform="translate(698.619 331.696) rotate(180)" style="fill:#f5f5f5;"></rect><path d="M343.978,158.634l10.663,8.972s0,5.374,0,5.33-10.663-8.395-10.663-8.35,0-5.952,0-5.952Z" style="fill:#fff; opacity:.2;"></path></g><rect x="342.668" y="176.556" width="13.756" height="1.577" transform="translate(699.092 354.69) rotate(180)" style="fill:#fff;"></rect></g><g><g><rect x="429.144" y="198.436" width="10.663" height="21.497" transform="translate(868.952 418.37) rotate(180)" style="fill:#f5f5f5;"></rect><path d="M429.144,201.971l10.663,8.972s0,5.374,0,5.33-10.663-8.395-10.663-8.35,0-5.952,0-5.952Z" style="fill:#fff; opacity:.2;"></path></g><g><rect x="407.763" y="198.436" width="10.663" height="21.497" transform="translate(826.188 418.37) rotate(180)" style="fill:#f5f5f5;"></rect><path d="M407.763,201.971l10.663,8.972s0,5.374,0,5.33-10.663-8.395-10.663-8.35,0-5.952,0-5.952Z" style="fill:#fff; opacity:.2;"></path></g><g><rect x="386.381" y="198.436" width="10.663" height="21.497" transform="translate(783.424 418.37) rotate(180)" style="fill:#f5f5f5;"></rect><path d="M386.381,201.971l10.663,8.972s0,5.374,0,5.33-10.663-8.395-10.663-8.35,0-5.952,0-5.952Z" style="fill:#fff; opacity:.2;"></path></g><g><rect x="364.999" y="198.436" width="10.663" height="21.497" transform="translate(740.66 418.37) rotate(180)" style="fill:#f5f5f5;"></rect><path d="M364.999,201.971l10.663,8.972s0,5.374,0,5.33-10.663-8.395-10.663-8.35,0-5.952,0-5.952Z" style="fill:#fff; opacity:.2;"></path></g><rect x="427.291" y="219.893" width="13.756" height="1.577" transform="translate(868.338 441.364) rotate(180)" style="fill:#fff;"></rect><rect x="406.09" y="219.893" width="13.756" height="1.577" transform="translate(825.937 441.364) rotate(180)" style="fill:#fff;"></rect><rect x="384.89" y="219.893" width="13.756" height="1.577" transform="translate(783.536 441.364) rotate(180)" style="fill:#fff;"></rect><rect x="363.689" y="219.893" width="13.756" height="1.577" transform="translate(741.134 441.364) rotate(180)" style="fill:#fff;"></rect><g><rect x="343.978" y="198.436" width="10.663" height="21.497" transform="translate(698.619 418.37) rotate(180)" style="fill:#f5f5f5;"></rect><path d="M343.978,201.971l10.663,8.972s0,5.374,0,5.33-10.663-8.395-10.663-8.35,0-5.952,0-5.952Z" style="fill:#fff; opacity:.2;"></path></g><rect x="342.668" y="219.893" width="13.756" height="1.577" transform="translate(699.092 441.364) rotate(180)" style="fill:#fff;"></rect></g></g><g><rect x="42.049" y="107.898" width="135.706" height="128.056" style="fill:#e6e6e6;"></rect><polygon points="175.788 107.898 39.371 107.898 45.985 95.96 175.788 95.96 175.788 107.898" style="fill:#e0e0e0;"></polygon><rect x="42.049" y="186.054" width="133.74" height="1.588" rx=".756" ry=".756" style="fill:#fff;"></rect><g><g><rect x="60.969" y="119.76" width="10.663" height="21.497" style="fill:#f5f5f5;"></rect><path d="M71.632,123.294l-10.663,8.972s0,5.374,0,5.33,10.663-8.395,10.663-8.35,0-5.952,0-5.952Z" style="fill:#fff; opacity:.2;"></path></g><g><rect x="82.351" y="119.76" width="10.663" height="21.497" style="fill:#f5f5f5;"></rect><path d="M93.014,123.294l-10.663,8.972s0,5.374,0,5.33,10.663-8.395,10.663-8.35,0-5.952,0-5.952Z" style="fill:#fff; opacity:.2;"></path></g><g><rect x="103.733" y="119.76" width="10.663" height="21.497" style="fill:#f5f5f5;"></rect><path d="M114.395,123.294l-10.663,8.972s0,5.374,0,5.33,10.663-8.395,10.663-8.35,0-5.952,0-5.952Z" style="fill:#fff; opacity:.2;"></path></g><g><rect x="125.115" y="119.76" width="10.663" height="21.497" style="fill:#f5f5f5;"></rect><path d="M135.777,123.294l-10.663,8.972s0,5.374,0,5.33,10.663-8.395,10.663-8.35,0-5.952,0-5.952Z" style="fill:#fff; opacity:.2;"></path></g><rect x="59.729" y="141.217" width="13.756" height="1.577" style="fill:#fff;"></rect><rect x="80.929" y="141.217" width="13.756" height="1.577" style="fill:#fff;"></rect><rect x="102.13" y="141.217" width="13.756" height="1.577" style="fill:#fff;"></rect><rect x="123.331" y="141.217" width="13.756" height="1.577" style="fill:#fff;"></rect><g><rect x="146.135" y="119.76" width="10.663" height="21.497" style="fill:#f5f5f5;"></rect><path d="M156.798,123.294l-10.663,8.972s0,5.374,0,5.33,10.663-8.395,10.663-8.35,0-5.952,0-5.952Z" style="fill:#fff; opacity:.2;"></path></g><rect x="144.352" y="141.217" width="13.756" height="1.577" style="fill:#fff;"></rect></g><g><g><rect x="60.969" y="155.1" width="10.663" height="21.497" style="fill:#f5f5f5;"></rect><path d="M71.632,158.634l-10.663,8.972s0,5.374,0,5.33,10.663-8.395,10.663-8.35,0-5.952,0-5.952Z" style="fill:#fff; opacity:.2;"></path></g><g><rect x="82.351" y="155.1" width="10.663" height="21.497" style="fill:#f5f5f5;"></rect><path d="M93.014,158.634l-10.663,8.972s0,5.374,0,5.33,10.663-8.395,10.663-8.35,0-5.952,0-5.952Z" style="fill:#fff; opacity:.2;"></path></g><g><rect x="103.733" y="155.1" width="10.663" height="21.497" style="fill:#f5f5f5;"></rect><path d="M114.395,158.634l-10.663,8.972s0,5.374,0,5.33,10.663-8.395,10.663-8.35,0-5.952,0-5.952Z" style="fill:#fff; opacity:.2;"></path></g><g><rect x="125.115" y="155.1" width="10.663" height="21.497" style="fill:#f5f5f5;"></rect><path d="M135.777,158.634l-10.663,8.972s0,5.374,0,5.33,10.663-8.395,10.663-8.35,0-5.952,0-5.952Z" style="fill:#fff; opacity:.2;"></path></g><rect x="59.729" y="176.556" width="13.756" height="1.577" style="fill:#fff;"></rect><rect x="80.929" y="176.556" width="13.756" height="1.577" style="fill:#fff;"></rect><rect x="102.13" y="176.556" width="13.756" height="1.577" style="fill:#fff;"></rect><rect x="123.331" y="176.556" width="13.756" height="1.577" style="fill:#fff;"></rect><g><rect x="146.135" y="155.1" width="10.663" height="21.497" style="fill:#f5f5f5;"></rect><path d="M156.798,158.634l-10.663,8.972s0,5.374,0,5.33,10.663-8.395,10.663-8.35,0-5.952,0-5.952Z" style="fill:#fff; opacity:.2;"></path></g><rect x="144.352" y="176.556" width="13.756" height="1.577" style="fill:#fff;"></rect></g><g><g><rect x="60.969" y="198.436" width="10.663" height="21.497" style="fill:#f5f5f5;"></rect><path d="M71.632,201.971l-10.663,8.972s0,5.374,0,5.33,10.663-8.395,10.663-8.35,0-5.952,0-5.952Z" style="fill:#fff; opacity:.2;"></path></g><g><rect x="82.351" y="198.436" width="10.663" height="21.497" style="fill:#f5f5f5;"></rect><path d="M93.014,201.971l-10.663,8.972s0,5.374,0,5.33,10.663-8.395,10.663-8.35,0-5.952,0-5.952Z" style="fill:#fff; opacity:.2;"></path></g><g><rect x="103.733" y="198.436" width="10.663" height="21.497" style="fill:#f5f5f5;"></rect><path d="M114.395,201.971l-10.663,8.972s0,5.374,0,5.33,10.663-8.395,10.663-8.35,0-5.952,0-5.952Z" style="fill:#fff; opacity:.2;"></path></g><g><rect x="125.115" y="198.436" width="10.663" height="21.497" style="fill:#f5f5f5;"></rect><path d="M135.777,201.971l-10.663,8.972s0,5.374,0,5.33,10.663-8.395,10.663-8.35,0-5.952,0-5.952Z" style="fill:#fff; opacity:.2;"></path></g><rect x="59.729" y="219.893" width="13.756" height="1.577" style="fill:#fff;"></rect><rect x="80.929" y="219.893" width="13.756" height="1.577" style="fill:#fff;"></rect><rect x="102.13" y="219.893" width="13.756" height="1.577" style="fill:#fff;"></rect><rect x="123.331" y="219.893" width="13.756" height="1.577" style="fill:#fff;"></rect><g><rect x="146.135" y="198.436" width="10.663" height="21.497" style="fill:#f5f5f5;"></rect><path d="M156.798,201.971l-10.663,8.972s0,5.374,0,5.33,10.663-8.395,10.663-8.35,0-5.952,0-5.952Z" style="fill:#fff; opacity:.2;"></path></g><rect x="144.352" y="219.893" width="13.756" height="1.577" style="fill:#fff;"></rect></g></g><g><g><rect x="210.43" y="118.852" width="11.619" height="30.375" style="fill:#f5f5f5;"></rect><path d="M222.049,123.846l-11.619,12.677s0,7.594,0,7.531,11.619-11.861,11.619-11.799,0-8.41,0-8.41Z" style="fill:#fff; opacity:.2;"></path></g><g><rect x="233.729" y="118.852" width="11.619" height="30.375" style="fill:#f5f5f5;"></rect><path d="M245.348,123.846l-11.619,12.677s0,7.594,0,7.531,11.619-11.861,11.619-11.799,0-8.41,0-8.41Z" style="fill:#fff; opacity:.2;"></path></g><g><rect x="257.029" y="118.852" width="11.619" height="30.375" style="fill:#f5f5f5;"></rect><path d="M268.648,123.846l-11.619,12.677s0,7.594,0,7.531,11.619-11.861,11.619-11.799,0-8.41,0-8.41Z" style="fill:#fff; opacity:.2;"></path></g><g><rect x="280.328" y="118.852" width="11.619" height="30.375" style="fill:#f5f5f5;"></rect><path d="M291.947,123.846l-11.619,12.677s0,7.594,0,7.531,11.619-11.861,11.619-11.799,0-8.41,0-8.41Z" style="fill:#fff; opacity:.2;"></path></g><rect x="209.079" y="149.184" width="14.99" height="1.719" style="fill:#fff;"></rect><rect x="232.181" y="149.184" width="14.99" height="1.719" style="fill:#fff;"></rect><rect x="255.283" y="149.184" width="14.99" height="1.719" style="fill:#fff;"></rect><rect x="278.385" y="149.184" width="14.99" height="1.719" style="fill:#fff;"></rect></g><g><g><polygon points="305.456 98.542 305.456 93.684 330.876 93.684 330.876 98.542 326.076 101.47 309.531 101.47 305.456 98.542" style="fill:#ebebeb;"></polygon><rect x="309.531" y="101.47" width="16.545" height="124.486" style="fill:#ebebeb;"></rect></g><polygon points="305.456 98.542 330.876 98.542 326.076 101.47 309.531 101.47 305.456 98.542" style="fill:#e0e0e0;"></polygon><g><rect x="312.751" y="104.643" width="1.411" height="118.138" rx=".671" ry=".671" style="fill:#e0e0e0;"></rect><rect x="317.461" y="104.643" width="1.41" height="118.138" rx=".671" ry=".671" style="fill:#e0e0e0;"></rect><rect x="322.171" y="104.643" width="1.411" height="118.138" rx=".671" ry=".671" style="fill:#e0e0e0;"></rect></g></g><g><g><polygon points="168.318 98.542 168.318 93.684 193.738 93.684 193.738 98.542 188.938 101.47 172.393 101.47 168.318 98.542" style="fill:#ebebeb;"></polygon><rect x="172.393" y="101.47" width="16.545" height="124.486" style="fill:#ebebeb;"></rect></g><polygon points="168.318 98.542 193.738 98.542 188.938 101.47 172.393 101.47 168.318 98.542" style="fill:#e0e0e0;"></polygon><g><rect x="175.613" y="104.643" width="1.411" height="118.138" rx=".671" ry=".671" style="fill:#e0e0e0;"></rect><rect x="180.323" y="104.643" width="1.41" height="118.138" rx=".671" ry=".671" style="fill:#e0e0e0;"></rect><rect x="185.033" y="104.643" width="1.411" height="118.138" rx=".671" ry=".671" style="fill:#e0e0e0;"></rect></g></g><g><rect x="149.775" y="225.956" width="196.713" height="5.33" style="fill:#e0e0e0;"></rect><rect x="157.663" y="220.625" width="181.395" height="5.33" style="fill:#e0e0e0;"></rect><rect x="142.03" y="231.222" width="210.917" height="5.33" style="fill:#e0e0e0;"></rect></g><g><path d="M163.018,84.092c.87,0,88.753-42.056,88.753-42.056l88.173,42.056H163.018Z" style="fill:#e0e0e0;"></path><polygon points="339.944 93.684 164.786 93.684 162.764 93.684 162.764 84.092 339.944 84.092 339.944 93.684" style="fill:#e6e6e6;"></polygon><rect x="162.764" y="84.092" width="177.18" height="1.172" style="fill:#ebebeb;"></rect></g><g><rect x="210.929" y="184.476" width="83.544" height="36.134" style="fill:#e0e0e0;"></rect><rect x="213.218" y="186.636" width="16.82" height="33.973" style="fill:#f5f5f5;"></rect><rect x="275.11" y="186.636" width="17.478" height="33.973" style="fill:#f5f5f5;"></rect><rect x="232.277" y="186.636" width="19.077" height="33.973" style="fill:#f5f5f5;"></rect><rect x="253.901" y="186.636" width="19.078" height="33.973" style="fill:#f5f5f5;"></rect><path d="M230.039,189.923c0-.114-16.82,12.274-16.82,12.628v8.546l16.82-12.63v-8.544Z" style="fill:#fff; opacity:.2;"></path><polyline points="230.039 202.551 213.218 214.825 213.218 217.324 230.039 204.955 230.039 203.081" style="fill:#fff; opacity:.2;"></polyline><path d="M292.588,189.923c0-.114-17.478,12.274-17.478,12.628v8.546l17.478-12.63v-8.544Z" style="fill:#fff; opacity:.2;"></path><polyline points="292.588 202.551 275.11 214.825 275.11 217.324 292.588 204.955 292.588 203.081" style="fill:#fff; opacity:.2;"></polyline><polygon points="251.354 194.265 232.277 205.491 232.277 212.932 251.354 201.016 251.354 194.265" style="fill:#fff; opacity:.2;"></polygon><polygon points="272.979 199.123 253.901 211.315 253.901 218.756 272.979 206.84 272.979 199.123" style="fill:#fff; opacity:.2;"></polygon><rect x="248.402" y="201.928" width="2.952" height="9.169" style="fill:#e0e0e0;"></rect><rect x="253.913" y="201.928" width="2.952" height="9.169" style="fill:#e0e0e0;"></rect></g></g><rect x="18.155" y="235.704" width="468.03" height=".5" style="fill:#e0e0e0;"></rect><path d="M97.781,306.958c-2.134-7.733-2.42-10.266-.298-19.749-3.458,3.554-5.952,8.038-7.146,12.851-3.079-3.968-5.176-8.691-6.054-13.635-1.152,4.746-1.014,9.798,.395,14.474-3.615-3.858-7.749-7.228-12.257-9.99,3.718,5.686,7.689,9.89,6.392,15.777l18.968,.272Z" style="fill:#e0e0e0;"></path><path d="M350.112,348.837c-2.134-7.733-2.42-10.266-.298-19.749-3.458,3.554-5.951,8.038-7.146,12.851-3.079-3.968-5.176-8.691-6.054-13.635-1.152,4.746-1.014,9.798,.395,14.474-3.614-3.858-7.749-7.228-12.257-9.99,3.718,5.686,7.689,9.89,6.392,15.777l18.968,.272Z" style="fill:#e0e0e0;"></path><path d="M378.352,261.205c-1.258-4.558-1.426-6.051-.176-11.64-2.038,2.095-3.508,4.738-4.212,7.574-1.814-2.338-3.051-5.122-3.568-8.037-.679,2.797-.598,5.775,.233,8.531-2.13-2.274-4.567-4.26-7.224-5.888,2.191,3.352,4.532,5.829,3.767,9.299l11.18,.16Z" style="fill:#e0e0e0;"></path><path d="M418.104,271.909c-1.742-6.31-1.975-8.378-.243-16.116-2.822,2.9-4.857,6.559-5.832,10.487-2.512-3.238-4.224-7.092-4.941-11.127-.94,3.873-.828,7.996,.323,11.811-2.95-3.148-6.324-5.898-10.002-8.152,3.034,4.64,6.275,8.071,5.216,12.875l15.479,.222Z" style="fill:#e0e0e0;"></path><path d="M154.601,284.608c-1.742-6.313-1.975-8.382-.243-16.123-2.823,2.902-4.859,6.562-5.834,10.492-2.513-3.239-4.226-7.095-4.943-11.132-.941,3.875-.828,8,.323,11.817-2.951-3.15-6.327-5.901-10.007-8.156,3.035,4.643,6.277,8.074,5.218,12.881l15.486,.222Z" style="fill:#e0e0e0;"></path><path d="M124.012,76.208c-1.762-1.331-4.332-1.482-6.238-.366-2.529-5.111-9.577-7.366-14.603-4.673-1.311-5.507-6.737-9.74-12.398-9.672-5.661,.068-10.983,4.43-12.162,9.967-.187,.88-.311,1.844-.941,2.487-1.022,1.044-2.729,.694-4.187,.58-4.584-.358-9.197,2.861-10.444,7.287l63.131-.23c.553-2.137-.399-4.049-2.16-5.38Z" style="fill:#f0f0f0;"></path><path d="M420.868,55.491c-2.161-1.633-5.315-1.818-7.652-.449-3.103-6.27-11.749-9.037-17.915-5.733-1.609-6.756-8.265-11.949-15.21-11.866-6.945,.084-13.474,5.435-14.92,12.228-.23,1.08-.382,2.262-1.154,3.051-1.254,1.281-3.348,.851-5.136,.712-5.624-.439-11.283,3.51-12.813,8.94l77.451-.282c.678-2.622-.489-4.967-2.65-6.6Z" style="fill:#f0f0f0;"></path><path d="M181.989,45.561c-1.365-1.031-3.357-1.148-4.833-.283-1.959-3.96-7.42-5.707-11.314-3.621-1.016-4.267-5.22-7.546-9.606-7.494-4.386,.053-8.51,3.433-9.423,7.723-.145,.682-.241,1.429-.729,1.927-.792,.809-2.115,.538-3.244,.45-3.552-.277-7.126,2.217-8.092,5.646l48.913-.178c.428-1.656-.309-3.137-1.674-4.168Z" style="fill:#f0f0f0;"></path></g><g id="freepik--Shadow--inject-31"><path d="M458.875,454.526c0,3.387-93.517,6.132-208.875,6.132s-208.875-2.745-208.875-6.132,93.516-6.132,208.875-6.132,208.875,2.746,208.875,6.132Z" style="fill:#f5f5f5;"></path></g></svg>
